<?xml version="1.0" encoding="UTF-8"?>
<svg width="256px" height="256px" viewBox="0 0 256 256" version="1.1" xmlns="http://www.w3.org/2000/svg">
    <g stroke="none" stroke-width="1" fill="none" fill-rule="evenodd">
        <rect fill="#AF1681" x="0" y="0" width="256" height="256" rx="32"/>
        <path d="M128,48 C81.7,48 44,85.7 44,132 C44,178.3 81.7,216 128,216 C174.3,216 212,178.3 212,132 C212,85.7 174.3,48 128,48 Z M128,196 C92.7,196 64,167.3 64,132 C64,96.7 92.7,68 128,68 C163.3,68 192,96.7 192,132 C192,167.3 163.3,196 128,196 Z" fill="#FFFFFF" fill-rule="nonzero"/>
        <path d="M128,88 C103.7,88 84,107.7 84,132 C84,156.3 103.7,176 128,176 C152.3,176 172,156.3 172,132 C172,107.7 152.3,88 128,88 Z M128,156 C114.7,156 104,145.3 104,132 C104,118.7 114.7,108 128,108 C141.3,108 152,118.7 152,132 C152,145.3 141.3,156 128,156 Z" fill="#FFFFFF" fill-rule="nonzero"/>
    </g>
</svg> 